<mxfile host="app.diagrams.net" agent="Mozilla/5.0 (Windows NT 10.0; Win64; x64) AppleWebKit/537.36 (KHTML, like Gecko) Chrome/131.0.0.0 Safari/537.36 Edg/131.0.0.0" version="24.8.6">
  <diagram name="Seite-1" id="qBY9fNvRQoey6cPozZZt">
    <mxGraphModel dx="922" dy="584" grid="1" gridSize="10" guides="1" tooltips="1" connect="1" arrows="1" fold="1" page="1" pageScale="1" pageWidth="827" pageHeight="1169" math="0" shadow="0">
      <root>
        <mxCell id="0" />
        <mxCell id="1" parent="0" />
        <mxCell id="Grrdh9ZMX4xMKOt14PR_-1" value="" style="rounded=1;whiteSpace=wrap;html=1;" vertex="1" parent="1">
          <mxGeometry x="60" y="50" width="290" height="580" as="geometry" />
        </mxCell>
        <mxCell id="Grrdh9ZMX4xMKOt14PR_-2" value="" style="rounded=1;whiteSpace=wrap;html=1;" vertex="1" parent="1">
          <mxGeometry x="520" y="51" width="290" height="579" as="geometry" />
        </mxCell>
        <mxCell id="Grrdh9ZMX4xMKOt14PR_-4" value="" style="ellipse;shape=cloud;whiteSpace=wrap;html=1;" vertex="1" parent="1">
          <mxGeometry x="370" y="160" width="140" height="100" as="geometry" />
        </mxCell>
        <mxCell id="Grrdh9ZMX4xMKOt14PR_-6" value="Samsung S22 Ultra" style="text;strokeColor=none;fillColor=none;html=1;fontSize=24;fontStyle=1;verticalAlign=middle;align=center;" vertex="1" parent="1">
          <mxGeometry x="155" y="110" width="100" height="40" as="geometry" />
        </mxCell>
        <mxCell id="Grrdh9ZMX4xMKOt14PR_-8" value="&lt;font style=&quot;font-size: 10px;&quot;&gt;Auf dem Server gespeichert&lt;/font&gt;" style="text;strokeColor=none;fillColor=none;html=1;fontSize=24;fontStyle=1;verticalAlign=middle;align=center;" vertex="1" parent="1">
          <mxGeometry x="380" y="185" width="120" height="35" as="geometry" />
        </mxCell>
        <mxCell id="Grrdh9ZMX4xMKOt14PR_-9" value="&lt;div&gt;Chat Apps&lt;/div&gt;" style="text;strokeColor=none;fillColor=none;html=1;fontSize=24;fontStyle=1;verticalAlign=middle;align=center;" vertex="1" parent="1">
          <mxGeometry x="100" y="160" width="100" height="60" as="geometry" />
        </mxCell>
        <mxCell id="Grrdh9ZMX4xMKOt14PR_-10" value="" style="endArrow=classic;startArrow=classic;html=1;rounded=0;" edge="1" parent="1" target="Grrdh9ZMX4xMKOt14PR_-4">
          <mxGeometry width="50" height="50" relative="1" as="geometry">
            <mxPoint x="220" y="195" as="sourcePoint" />
            <mxPoint x="270" y="145" as="targetPoint" />
          </mxGeometry>
        </mxCell>
        <mxCell id="Grrdh9ZMX4xMKOt14PR_-11" value="ASUS Vivobook 16X" style="text;strokeColor=none;fillColor=none;html=1;fontSize=24;fontStyle=1;verticalAlign=middle;align=center;" vertex="1" parent="1">
          <mxGeometry x="610" y="110" width="100" height="40" as="geometry" />
        </mxCell>
        <mxCell id="Grrdh9ZMX4xMKOt14PR_-12" value="&lt;div&gt;Chat Apps&lt;/div&gt;" style="text;strokeColor=none;fillColor=none;html=1;fontSize=24;fontStyle=1;verticalAlign=middle;align=center;" vertex="1" parent="1">
          <mxGeometry x="680" y="172.5" width="100" height="60" as="geometry" />
        </mxCell>
        <mxCell id="Grrdh9ZMX4xMKOt14PR_-14" value="" style="endArrow=classic;startArrow=classic;html=1;rounded=0;" edge="1" parent="1">
          <mxGeometry width="50" height="50" relative="1" as="geometry">
            <mxPoint x="510" y="205" as="sourcePoint" />
            <mxPoint x="660" y="210" as="targetPoint" />
          </mxGeometry>
        </mxCell>
        <mxCell id="Grrdh9ZMX4xMKOt14PR_-15" value="Lokal Gespeichert" style="ellipse;shape=cloud;whiteSpace=wrap;html=1;" vertex="1" parent="1">
          <mxGeometry x="370" y="280" width="140" height="100" as="geometry" />
        </mxCell>
        <mxCell id="Grrdh9ZMX4xMKOt14PR_-16" value="Fotos" style="text;strokeColor=none;fillColor=none;html=1;fontSize=24;fontStyle=1;verticalAlign=middle;align=center;" vertex="1" parent="1">
          <mxGeometry x="100" y="232.5" width="100" height="60" as="geometry" />
        </mxCell>
        <mxCell id="Grrdh9ZMX4xMKOt14PR_-17" value="&lt;div&gt;Fotos&lt;/div&gt;" style="text;strokeColor=none;fillColor=none;html=1;fontSize=24;fontStyle=1;verticalAlign=middle;align=center;" vertex="1" parent="1">
          <mxGeometry x="680" y="232.5" width="100" height="60" as="geometry" />
        </mxCell>
        <mxCell id="Grrdh9ZMX4xMKOt14PR_-18" value="" style="endArrow=classic;startArrow=classic;html=1;rounded=0;" edge="1" parent="1" target="Grrdh9ZMX4xMKOt14PR_-15">
          <mxGeometry width="50" height="50" relative="1" as="geometry">
            <mxPoint x="205" y="270" as="sourcePoint" />
            <mxPoint x="255" y="220" as="targetPoint" />
          </mxGeometry>
        </mxCell>
        <mxCell id="Grrdh9ZMX4xMKOt14PR_-20" value="" style="endArrow=classic;startArrow=classic;html=1;rounded=0;" edge="1" parent="1" source="Grrdh9ZMX4xMKOt14PR_-15">
          <mxGeometry width="50" height="50" relative="1" as="geometry">
            <mxPoint x="630" y="310" as="sourcePoint" />
            <mxPoint x="680" y="260" as="targetPoint" />
          </mxGeometry>
        </mxCell>
        <mxCell id="Grrdh9ZMX4xMKOt14PR_-21" value="Google Drive" style="ellipse;shape=cloud;whiteSpace=wrap;html=1;" vertex="1" parent="1">
          <mxGeometry x="370" y="380" width="140" height="100" as="geometry" />
        </mxCell>
        <mxCell id="Grrdh9ZMX4xMKOt14PR_-22" value="" style="endArrow=classic;startArrow=classic;html=1;rounded=0;" edge="1" parent="1" source="Grrdh9ZMX4xMKOt14PR_-21">
          <mxGeometry width="50" height="50" relative="1" as="geometry">
            <mxPoint x="155" y="342.5" as="sourcePoint" />
            <mxPoint x="210" y="270" as="targetPoint" />
          </mxGeometry>
        </mxCell>
        <mxCell id="Grrdh9ZMX4xMKOt14PR_-23" value="OneDrive" style="ellipse;shape=cloud;whiteSpace=wrap;html=1;" vertex="1" parent="1">
          <mxGeometry x="370" y="470" width="140" height="100" as="geometry" />
        </mxCell>
        <mxCell id="Grrdh9ZMX4xMKOt14PR_-24" value="GitHub" style="ellipse;shape=cloud;whiteSpace=wrap;html=1;" vertex="1" parent="1">
          <mxGeometry x="370" y="560" width="140" height="100" as="geometry" />
        </mxCell>
        <mxCell id="Grrdh9ZMX4xMKOt14PR_-25" value="Projekte" style="text;strokeColor=none;fillColor=none;html=1;fontSize=24;fontStyle=1;verticalAlign=middle;align=center;" vertex="1" parent="1">
          <mxGeometry x="100" y="320" width="100" height="60" as="geometry" />
        </mxCell>
        <mxCell id="Grrdh9ZMX4xMKOt14PR_-27" value="" style="endArrow=classic;startArrow=classic;html=1;rounded=0;" edge="1" parent="1" source="Grrdh9ZMX4xMKOt14PR_-15" target="Grrdh9ZMX4xMKOt14PR_-25">
          <mxGeometry width="50" height="50" relative="1" as="geometry">
            <mxPoint x="170" y="400" as="sourcePoint" />
            <mxPoint x="220" y="350" as="targetPoint" />
          </mxGeometry>
        </mxCell>
        <mxCell id="Grrdh9ZMX4xMKOt14PR_-29" value="Projekte" style="text;strokeColor=none;fillColor=none;html=1;fontSize=24;fontStyle=1;verticalAlign=middle;align=center;" vertex="1" parent="1">
          <mxGeometry x="670" y="320" width="100" height="60" as="geometry" />
        </mxCell>
        <mxCell id="Grrdh9ZMX4xMKOt14PR_-30" value="" style="endArrow=classic;startArrow=classic;html=1;rounded=0;" edge="1" parent="1" target="Grrdh9ZMX4xMKOt14PR_-29">
          <mxGeometry width="50" height="50" relative="1" as="geometry">
            <mxPoint x="490" y="520" as="sourcePoint" />
            <mxPoint x="540" y="470" as="targetPoint" />
          </mxGeometry>
        </mxCell>
        <mxCell id="Grrdh9ZMX4xMKOt14PR_-31" value="" style="endArrow=classic;startArrow=classic;html=1;rounded=0;entryX=0;entryY=1;entryDx=0;entryDy=0;" edge="1" parent="1" target="Grrdh9ZMX4xMKOt14PR_-29">
          <mxGeometry width="50" height="50" relative="1" as="geometry">
            <mxPoint x="500" y="590" as="sourcePoint" />
            <mxPoint x="689" y="450" as="targetPoint" />
          </mxGeometry>
        </mxCell>
        <mxCell id="Grrdh9ZMX4xMKOt14PR_-32" value="Projekte Code" style="text;strokeColor=none;fillColor=none;html=1;fontSize=24;fontStyle=1;verticalAlign=middle;align=center;" vertex="1" parent="1">
          <mxGeometry x="620" y="440" width="200" height="60" as="geometry" />
        </mxCell>
        <mxCell id="Grrdh9ZMX4xMKOt14PR_-34" value="" style="endArrow=classic;startArrow=classic;html=1;rounded=0;exitX=0.885;exitY=0.768;exitDx=0;exitDy=0;exitPerimeter=0;" edge="1" parent="1" source="Grrdh9ZMX4xMKOt14PR_-15" target="Grrdh9ZMX4xMKOt14PR_-32">
          <mxGeometry width="50" height="50" relative="1" as="geometry">
            <mxPoint x="430" y="390" as="sourcePoint" />
            <mxPoint x="480" y="340" as="targetPoint" />
          </mxGeometry>
        </mxCell>
        <mxCell id="Grrdh9ZMX4xMKOt14PR_-35" value="" style="endArrow=classic;startArrow=classic;html=1;rounded=0;exitX=0.885;exitY=0.768;exitDx=0;exitDy=0;exitPerimeter=0;entryX=0.182;entryY=0.94;entryDx=0;entryDy=0;entryPerimeter=0;" edge="1" parent="1" target="Grrdh9ZMX4xMKOt14PR_-32">
          <mxGeometry width="50" height="50" relative="1" as="geometry">
            <mxPoint x="500" y="600" as="sourcePoint" />
            <mxPoint x="666" y="683" as="targetPoint" />
          </mxGeometry>
        </mxCell>
        <mxCell id="Grrdh9ZMX4xMKOt14PR_-38" value="" style="rounded=0;whiteSpace=wrap;html=1;" vertex="1" parent="1">
          <mxGeometry x="660" y="500" width="140" height="30" as="geometry" />
        </mxCell>
        <mxCell id="Grrdh9ZMX4xMKOt14PR_-39" value="C:\Projects" style="text;strokeColor=none;fillColor=none;html=1;fontSize=24;fontStyle=1;verticalAlign=middle;align=center;" vertex="1" parent="1">
          <mxGeometry x="680" y="495" width="100" height="40" as="geometry" />
        </mxCell>
      </root>
    </mxGraphModel>
  </diagram>
</mxfile>
